<?xml version="1.0" standalone="no"?><!DOCTYPE svg PUBLIC "-//W3C//DTD SVG 1.1//EN" "http://www.w3.org/Graphics/SVG/1.1/DTD/svg11.dtd"><svg class="icon" width="64px" height="61.02px" viewBox="0 0 1074 1024" version="1.1" xmlns="http://www.w3.org/2000/svg"><path d="M588.034564 395.495382c1.995415 7.470016 3.018705 11.205024 2.50706 14.991196-0.511645 3.683843-2.455896 7.0607-6.293232 13.814413L457.155794 643.745497c-14.684209 25.326423-22.000731 37.912888-16.474966 47.429484 5.525765 9.465431 20.15881 9.465431 49.476063 9.465431h253.417728c7.777003 0 11.665504 0 15.195855 1.432605 3.53035 1.534935 6.293232 4.246653 11.716668 9.721254l247.636141 246.766344c27.67999 27.577661 41.443238 41.392074 36.633776 53.108742s-24.405463 11.716669-63.546299 11.716669H184.551382c-39.140836 0-58.685672 0-63.546299-11.767833-4.809462-11.665504 8.953786-25.479917 36.633776-53.057578l148.684013-148.070039c40.419949-40.266455 60.629923-60.3741 53.262236-73.062895-7.316522-12.535301-34.894183-5.218778-90.049505 9.516596l-202.304401 54.080868c-37.810559 10.079405-56.792586 15.14469-64.518424 5.065284-7.777003-10.079405 2.04658-26.963687 21.64258-60.681087L427.531553 49.214101c19.596-33.768565 29.419583-50.652847 42.006048-49.066747s17.702914 20.516961 27.884648 58.225191z" fill="#086bf5" /></svg>