<?xml version="1.0" standalone="no"?><!DOCTYPE svg PUBLIC "-//W3C//DTD SVG 1.1//EN" "http://www.w3.org/Graphics/SVG/1.1/DTD/svg11.dtd"><svg class="icon" width="64px" height="64.00px" viewBox="0 0 1024 1024" version="1.1" xmlns="http://www.w3.org/2000/svg"><path d="M1019.254289 620.586673l-127.540158-222.931367 54.637219-104.636031a29.078004 29.078004 0 0 0 6.397801-36.371498l-70.151886-126.51651a30.069664 30.069664 0 0 0-24.567555-13.659304h-260.582424L539.163321 14.554997A27.350598 27.350598 0 0 0 518.274501 0h-137.552716a29.141982 29.141982 0 0 0-24.599544 14.554997v5.534097L225.831029 243.116429h-124.757115a29.173971 29.173971 0 0 0-25.591203 13.659304L3.475463 383.868045a32.75674 32.75674 0 0 0 0 29.173972l129.395521 224.722751-58.315954 102.044922a32.75674 32.75674 0 0 0 0 29.046016l66.505139 116.535941a29.909719 29.909719 0 0 0 25.591203 14.491018h260.550435l62.826404 109.17847a30.069664 30.069664 0 0 0 22.776171 14.586986h147.597263a29.141982 29.141982 0 0 0 24.567555-14.554997l128.43585-224.75474h114.744557a31.989004 31.989004 0 0 0 24.663522-15.450689l66.473149-117.367655a28.150323 28.150323 0 0 0 0-30.965356z m-161.256568 14.586986l-66.505138-122.869763L518.274501 993.610446l-74.726313-122.837774H170.298118l65.577458-119.031083h139.376089L101.905628 272.162444h143.022836L380.721785 30.101653l68.328512 119.223017-70.183874 122.837774h546.564118l-69.192215 121.910094 137.552716 241.101121h-135.729343z" fill="#605BEC" /><path d="M499.944802 699.119678l174.340071-274.689576H324.709039z" fill="#605BEC" /></svg>