<?xml version="1.0" standalone="no"?><!DOCTYPE svg PUBLIC "-//W3C//DTD SVG 1.1//EN" "http://www.w3.org/Graphics/SVG/1.1/DTD/svg11.dtd"><svg class="icon" width="64px" height="64.00px" viewBox="0 0 1024 1024" version="1.1" xmlns="http://www.w3.org/2000/svg"><path d="M0 0h1024v1024H0z" fill="#FFFFFF" /><path d="M320.7424 128c119.808 0.2304 239.5904 0.3072 359.3472 0.256 48.2048-0.0256 81.8688 3.1744 100.9664 9.6512 104.832 35.5584 140.2112 168.7296 90.0096 260.7872-25.4208 46.7456-67.7632 75.3408-127.0272 85.7856a1.9712 1.9712 0 0 0-1.5872 1.3824c-0.256 0.768-0.0256 1.5616 0.512 2.1248 44.7488 44.2368 113.28 101.3504 137.216 151.3728 41.7024 87.04-2.304 206.464-93.4656 242.944-131.5328 52.736-219.6224-58.0352-296.7808-141.7472a2.688 2.688 0 0 0-4.6336 1.4336C458.4704 924.928 192.768 945.6128 138.24 776.2432c-6.9888-21.7088-10.4192-63.5648-10.24-125.5168 0.256-108.4928 0.4096-216.9856 0.4096-325.504C128.512 202.9568 201.1136 127.744 320.768 128zM491.52 485.76c-2.0224 0-3.0208 1.024-3.0208 3.0208v95.9744c0 2.4576 0.8704 4.5824 2.6368 6.3232 56.8576 56.9088 113.92 113.8176 171.1616 170.7008 36.9152 36.7616 82.6112 35.328 114.432-9.0368 31.1808-43.52 4.2752-75.6224-25.3184-104.8064l-6.144-6.016-3.072-2.9696a9267.0208 9267.0208 0 0 1-150.528-149.5552 7.3984 7.3984 0 0 0-5.248-2.2272l-94.8992-1.408z m-182.144-249.5488h-3.8912a69.5808 69.5808 0 0 0-69.632 69.5552V716.8a69.5296 69.5296 0 0 0 69.632 69.5552h3.8912A69.632 69.632 0 0 0 379.0336 716.8V305.7664c0-38.4-31.1808-69.5552-69.632-69.5552z m167.7312-0.256a1.7408 1.7408 0 0 0-1.6896 2.1504c8.704 35.072 13.1072 70.656 13.1584 106.7776 0 7.0912-2.176 18.9952-1.6896 28.3648 0.128 2.688 1.536 4.0448 4.2496 4.0448 74.9568 0.1792 149.9648 0.1536 224.9984-0.0768 97.6896-0.3328 87.936-141.2096 9.9072-141.2608-82.9952-0.0512-165.9648-0.0512-248.9344 0z" fill="#000000" /></svg>