<svg width="114" height="114" viewBox="0 0 114 114" fill="none" xmlns="http://www.w3.org/2000/svg">
<rect width="114" height="114" rx="57" fill="#171335"/>
<path d="M34.2074 52.3438C34.1278 51.5994 33.7926 51.0199 33.2017 50.6051C32.6165 50.1903 31.8551 49.983 30.9176 49.983C30.2585 49.983 29.6932 50.0824 29.2216 50.2812C28.75 50.4801 28.3892 50.75 28.1392 51.0909C27.8892 51.4318 27.7614 51.821 27.7557 52.2585C27.7557 52.6222 27.8381 52.9375 28.0028 53.2045C28.1733 53.4716 28.4034 53.6989 28.6932 53.8864C28.983 54.0682 29.304 54.2216 29.6562 54.3466C30.0085 54.4716 30.3636 54.5767 30.7216 54.6619L32.358 55.071C33.017 55.2244 33.6506 55.4318 34.2585 55.6932C34.8722 55.9545 35.4205 56.2841 35.9034 56.6818C36.392 57.0795 36.7784 57.5597 37.0625 58.1222C37.3466 58.6847 37.4886 59.3437 37.4886 60.0994C37.4886 61.1222 37.2273 62.0227 36.7045 62.8011C36.1818 63.5739 35.4261 64.179 34.4375 64.6165C33.4545 65.0483 32.2642 65.2642 30.8665 65.2642C29.5085 65.2642 28.3295 65.054 27.3295 64.6335C26.3352 64.2131 25.5568 63.5994 24.9943 62.7926C24.4375 61.9858 24.1364 61.0028 24.0909 59.8438H27.2017C27.2472 60.4517 27.4347 60.9574 27.7642 61.3608C28.0938 61.7642 28.5227 62.0653 29.0511 62.2642C29.5852 62.4631 30.1818 62.5625 30.8409 62.5625C31.5284 62.5625 32.1307 62.4602 32.6477 62.2557C33.1705 62.0455 33.5795 61.7557 33.875 61.3864C34.1705 61.0114 34.321 60.5739 34.3267 60.0739C34.321 59.6193 34.1875 59.2443 33.9261 58.9489C33.6648 58.6477 33.2983 58.3977 32.8267 58.1989C32.3608 57.9943 31.8153 57.8125 31.1903 57.6534L29.2045 57.142C27.767 56.7727 26.6307 56.2131 25.7955 55.4631C24.9659 54.7074 24.5511 53.7045 24.5511 52.4545C24.5511 51.4261 24.8295 50.5256 25.3864 49.7528C25.9489 48.9801 26.7131 48.3807 27.679 47.9545C28.6449 47.5227 29.7386 47.3068 30.9602 47.3068C32.1989 47.3068 33.2841 47.5227 34.2159 47.9545C35.1534 48.3807 35.8892 48.9744 36.4233 49.7358C36.9574 50.4915 37.233 51.3608 37.25 52.3438H34.2074ZM46.7081 51.9091V54.2955H39.1825V51.9091H46.7081ZM41.0405 48.7727H44.1257V61.0625C44.1257 61.4773 44.1882 61.7955 44.3132 62.017C44.4439 62.233 44.6143 62.3807 44.8246 62.4602C45.0348 62.5398 45.2678 62.5795 45.5234 62.5795C45.7166 62.5795 45.8928 62.5653 46.0518 62.5369C46.2166 62.5085 46.3416 62.483 46.4268 62.4602L46.9467 64.8722C46.782 64.929 46.5462 64.9915 46.2393 65.0597C45.9382 65.1278 45.5689 65.1676 45.1314 65.179C44.3587 65.2017 43.6626 65.0852 43.0433 64.8295C42.424 64.5682 41.9325 64.1648 41.5689 63.6193C41.2109 63.0739 41.0348 62.392 41.0405 61.5739V48.7727ZM49.2884 65V51.9091H52.3736V65H49.2884ZM50.8395 50.0511C50.3509 50.0511 49.9304 49.8892 49.5781 49.5653C49.2259 49.2358 49.0497 48.8409 49.0497 48.3807C49.0497 47.9148 49.2259 47.5199 49.5781 47.196C49.9304 46.8665 50.3509 46.7017 50.8395 46.7017C51.3338 46.7017 51.7543 46.8665 52.1009 47.196C52.4531 47.5199 52.6293 47.9148 52.6293 48.3807C52.6293 48.8409 52.4531 49.2358 52.1009 49.5653C51.7543 49.8892 51.3338 50.0511 50.8395 50.0511ZM62.0831 51.9091V54.2955H54.5575V51.9091H62.0831ZM56.4155 48.7727H59.5007V61.0625C59.5007 61.4773 59.5632 61.7955 59.6882 62.017C59.8189 62.233 59.9893 62.3807 60.1996 62.4602C60.4098 62.5398 60.6428 62.5795 60.8984 62.5795C61.0916 62.5795 61.2678 62.5653 61.4268 62.5369C61.5916 62.5085 61.7166 62.483 61.8018 62.4602L62.3217 64.8722C62.157 64.929 61.9212 64.9915 61.6143 65.0597C61.3132 65.1278 60.9439 65.1676 60.5064 65.179C59.7337 65.2017 59.0376 65.0852 58.4183 64.8295C57.799 64.5682 57.3075 64.1648 56.9439 63.6193C56.5859 63.0739 56.4098 62.392 56.4155 61.5739V48.7727ZM70.233 65.2557C68.9261 65.2557 67.804 64.9688 66.8665 64.3949C65.9347 63.821 65.2159 63.0284 64.7102 62.017C64.2102 61 63.9602 59.8295 63.9602 58.5057C63.9602 57.1761 64.2159 56.0028 64.7273 54.9858C65.2386 53.9631 65.9602 53.1676 66.892 52.5994C67.8295 52.0256 68.9375 51.7386 70.2159 51.7386C71.2784 51.7386 72.2188 51.9347 73.0369 52.3267C73.8608 52.7131 74.517 53.2614 75.0057 53.9716C75.4943 54.6761 75.7727 55.5 75.8409 56.4432H72.892C72.7727 55.8125 72.4886 55.2869 72.0398 54.8665C71.5966 54.4403 71.0028 54.2273 70.2585 54.2273C69.6278 54.2273 69.0739 54.3977 68.5966 54.7386C68.1193 55.0739 67.7472 55.5568 67.4801 56.1875C67.2188 56.8182 67.0881 57.5739 67.0881 58.4545C67.0881 59.3466 67.2188 60.1136 67.4801 60.7557C67.7415 61.392 68.108 61.8835 68.5795 62.2301C69.0568 62.571 69.6165 62.7415 70.2585 62.7415C70.7131 62.7415 71.1193 62.6562 71.4773 62.4858C71.8409 62.3097 72.1449 62.0568 72.3892 61.7273C72.6335 61.3977 72.8011 60.9972 72.892 60.5256H75.8409C75.767 61.4517 75.4943 62.2727 75.0227 62.9886C74.5511 63.6989 73.9091 64.2557 73.0966 64.6591C72.2841 65.0568 71.3295 65.2557 70.233 65.2557ZM81.4595 57.3295V65H78.3743V47.5455H81.3913V54.1335H81.5447C81.8516 53.3949 82.326 52.8125 82.968 52.3864C83.6158 51.9545 84.4396 51.7386 85.4396 51.7386C86.3487 51.7386 87.1413 51.929 87.8175 52.3097C88.4936 52.6903 89.0163 53.2472 89.3857 53.9801C89.7607 54.7131 89.9482 55.608 89.9482 56.6648V65H86.8629V57.142C86.8629 56.2614 86.6357 55.5767 86.1811 55.0881C85.7322 54.5937 85.1016 54.3466 84.2891 54.3466C83.7436 54.3466 83.255 54.4659 82.8232 54.7045C82.397 54.9375 82.0618 55.2756 81.8175 55.7188C81.5788 56.1619 81.4595 56.6989 81.4595 57.3295Z" fill="white"/>
</svg>
